<svg id="Layer_1" data-name="Layer 1" xmlns="http://www.w3.org/2000/svg" viewBox="0 0 950 950"><defs><style>.cls-1{fill:#0375b2;}</style></defs><title>ayush</title><path class="cls-1" d="M533,790.13v46.36c-137.26,0-257.08-74.56-321.21-185.42A369.33,369.33,0,0,1,165,512h46.79a322.54,322.54,0,0,0,54.85,139.06C325.26,735.12,422.68,790.13,533,790.13Z"/><path class="cls-1" d="M115.76,442.47v46.36H69.41a23.18,23.18,0,1,1,0-46.36h46.39Z"/><polygon class="cls-1" points="579.31 465.65 532.95 488.83 138.94 488.83 138.94 442.47 532.95 442.47 579.31 465.65"/><path class="cls-1" d="M903.79,465.65V813.31a23.18,23.18,0,1,1-46.36,0V465.65c0-179.21-145.27-324.48-324.48-324.48-163.45,0-298.7,120.88-321.18,278.13H165c22.79-183,178.83-324.48,368-324.48C737.76,94.82,903.79,260.84,903.79,465.65Z"/><path class="cls-1" d="M615.67,805.07v31.29H608.9l-.18-6.1a7.65,7.65,0,0,1-.65.62,22.07,22.07,0,0,1-6.57,4.66c-.52.23-1,.44-1.59.62a18.68,18.68,0,0,1-6.11,1,18.21,18.21,0,0,1-6.38-1,12.23,12.23,0,0,1-4.34-2.69,10.36,10.36,0,0,1-2.5-4.09,15.53,15.53,0,0,1-.83-5.1,13,13,0,0,1,4.9-10.71c3.24-2.58,8.06-3.87,14.42-3.87h.85v6H598.5a17.06,17.06,0,0,0-4.87.59,8.7,8.7,0,0,0-3.32,1.68,6.37,6.37,0,0,0-1.93,2.6,8.23,8.23,0,0,0-.64,3.4,8.45,8.45,0,0,0,.38,2.49,5.91,5.91,0,0,0,1.27,2.14,6.18,6.18,0,0,0,2.26,1.47,9.25,9.25,0,0,0,3.38.54,12.75,12.75,0,0,0,4.89-1.16A10.5,10.5,0,0,0,601,829a29.32,29.32,0,0,0,7.08-5.23v-18a8.57,8.57,0,0,0-2.47-6.44,9,9,0,0,0-5.69-2.32,12.89,12.89,0,0,0-1.86-.1,31.12,31.12,0,0,0-7.26.85,52,52,0,0,0-7.39,2.44v-7.09c1-.38,2-.72,3.19-1.08s2.4-.64,3.71-.93a36.8,36.8,0,0,1,4.07-.64,32.55,32.55,0,0,1,4.3-.26h1.24a25.39,25.39,0,0,1,5.87.87,13.53,13.53,0,0,1,2.29.88,11.76,11.76,0,0,1,6.41,6.54A17.05,17.05,0,0,1,615.67,805.07Z"/><path class="cls-1" d="M660.19,791,650,820.83l-2.5,7.23-2.22-7-11-30h-8.57l17.37,45.32a36.37,36.37,0,0,1-2.86,5.46,16.78,16.78,0,0,1-3.09,3.68,9.88,9.88,0,0,1-3.4,2.06,11.47,11.47,0,0,1-3.89.65,23.52,23.52,0,0,1-2.37-.13,15.19,15.19,0,0,1-2.08-.23V855l2,.13c.62,0,1.29,0,2,0a21.06,21.06,0,0,0,7.78-1.36,18.41,18.41,0,0,0,6.36-4.23,30.23,30.23,0,0,0,5.36-7.34,81.31,81.31,0,0,0,4.76-10.66L668.49,791Z"/><path class="cls-1" d="M706.08,791v30.06c-1.39,1.83-2.65,3.35-3.76,4.56a21.63,21.63,0,0,1-3.11,2.86,10,10,0,0,1-2.83,1.58,9.26,9.26,0,0,1-2.71.44q-7.53,0-7.54-10.43v-29h-7.55v29.64c0,5.53,1.13,9.68,3.43,12.44s5.66,4.12,10.14,4.12a17.77,17.77,0,0,0,3.71-.39,13.49,13.49,0,0,0,3.48-1.34,18.84,18.84,0,0,0,3.5-2.52,40.12,40.12,0,0,0,3.71-3.89l.26,7.31h6.77V791Z"/><path class="cls-1" d="M761.17,819.49a9.28,9.28,0,0,0-2.37-3.58,16.78,16.78,0,0,0-4.3-2.88,42.63,42.63,0,0,0-6.49-2.45q-2.94-.86-5.77-2a16.6,16.6,0,0,1-3.45-1.85,5.38,5.38,0,0,1-1.7-1.94,5.11,5.11,0,0,1-.44-2.21,5,5,0,0,1,.52-2.29,4.41,4.41,0,0,1,1.7-1.83A9.79,9.79,0,0,1,742,797.2a21.84,21.84,0,0,1,4.77-.44,42.89,42.89,0,0,1,5.54.41,61.44,61.44,0,0,1,6.72,1.34v-7a50.87,50.87,0,0,0-6.49-1c-2.09-.2-4-.31-5.69-.31a25.33,25.33,0,0,0-8.68,1.29,15.77,15.77,0,0,0-5.49,3.25,11,11,0,0,0-2.88,4.19,11.83,11.83,0,0,0-.85,4.15,11.19,11.19,0,0,0,1,5,11.65,11.65,0,0,0,2.86,3.71,17.83,17.83,0,0,0,4.32,2.73,42,42,0,0,0,5.44,2.06c2.62.82,4.71,1.54,6.23,2.16a13.91,13.91,0,0,1,3.35,1.86,4.55,4.55,0,0,1,1.49,1.82,5.79,5.79,0,0,1,.41,2.22,4.83,4.83,0,0,1-2.6,4.38c-1.72,1-4.4,1.54-8,1.54a48.18,48.18,0,0,1-7.49-.59,59.71,59.71,0,0,1-7.6-1.73v7.24a57.52,57.52,0,0,0,7.26,1.31,79,79,0,0,0,8.14.42,28.8,28.8,0,0,0,4.15-.34,24.49,24.49,0,0,0,4.14-1,21.58,21.58,0,0,0,3.79-1.72,14,14,0,0,0,3.14-2.5,11.06,11.06,0,0,0,2.11-3.37,11.32,11.32,0,0,0,.8-4.3A13.69,13.69,0,0,0,761.17,819.49Z"/><path class="cls-1" d="M807.68,794.33c-2.37-2.76-5.74-4.15-10.07-4.15a15.73,15.73,0,0,0-3.68.41,14.15,14.15,0,0,0-3.51,1.37,19.58,19.58,0,0,0-3.42,2.45,30.74,30.74,0,0,0-3.48,3.73l.26-7.13V772.52h-7.55v63.86h7.55v-30.1c1.47-1.8,2.78-3.32,3.89-4.51a24.49,24.49,0,0,1,3.14-2.88,9.37,9.37,0,0,1,2.76-1.5,9,9,0,0,1,2.83-.43,6.21,6.21,0,0,1,5.38,2.6c1.26,1.75,1.91,4.35,1.91,7.85v29h7.54V806.77Q811.23,798.46,807.68,794.33Z"/></svg>